<?xml version="1.0" encoding="iso-8859-1"?>
<!-- Generator: Adobe Illustrator 18.0.0, SVG Export Plug-In . SVG Version: 6.00 Build 0)  -->
<!DOCTYPE svg PUBLIC "-//W3C//DTD SVG 1.1//EN" "http://www.w3.org/Graphics/SVG/1.1/DTD/svg11.dtd">
<svg version="1.1" id="Capa_1" xmlns="http://www.w3.org/2000/svg" xmlns:xlink="http://www.w3.org/1999/xlink" x="0px" y="0px"
	 viewBox="0 0 297 297" style="enable-background:new 0 0 297 297;" xml:space="preserve">
<path fill="#000000" d="M279.499,156.725c-0.367-0.83-9.209-20.485-29.151-36.578c-12.236-9.875-30.266-19.616-54.48-20.805
	c21.539-11.638,33.972-28.294,41.077-42.653c11.816-23.876,11.603-46.267,11.588-47.208c-0.047-2.985-1.475-5.779-3.866-7.565
	c-2.39-1.786-5.476-2.362-8.35-1.563c-47.09,13.113-70.584,39.981-82.002,60.211c-3.662,6.488-6.342,12.716-8.311,18.308
	c-2.42-5.486-5.621-11.575-9.854-17.852C123.163,41.76,97.608,16.843,49.627,7.512c-2.93-0.567-5.958,0.251-8.2,2.222
	c-2.241,1.971-3.442,4.869-3.252,7.847c0.06,0.94,1.625,23.277,15.3,46.14c7.495,12.531,19.55,26.615,38.58,36.501
	c-19.696,2.838-34.75,11.326-45.404,19.925c-19.942,16.093-28.784,35.749-29.151,36.578c-1.207,2.729-1.081,5.864,0.341,8.488
	s3.981,4.44,6.927,4.917c9.018,1.462,17.46,2.109,25.354,2.109c32.7,0,55.877-11.13,70.473-21.654
	c4.796-3.458,8.936-7.033,12.472-10.477c9.273,49.374,1.808,99.362-21.65,142.673c-1.617,2.985-1.543,6.601,0.194,9.517
	c1.737,2.917,4.881,4.703,8.276,4.703h71.982c4.895,0,9.012-3.671,9.57-8.535c5.185-45.179-0.478-90.565-16.028-132.042
	c14.508,8.428,34.822,15.815,61.465,15.815c7.892,0,16.339-0.648,25.354-2.109c2.946-0.477,5.505-2.293,6.927-4.917
	S280.706,159.453,279.499,156.725z M227.904,23.374c-3.652,20.236-17.004,56.894-65.659,68.021
	C167.198,73.571,182.312,40.821,227.904,23.374z M59.838,29.773c26.106,7.608,46.189,21.449,59.827,41.265
	c5.414,7.865,8.863,15.416,11.019,21.345C81.292,85.15,65.078,49.65,59.838,29.773z M108.588,135.486
	c-18.568,13.111-40.87,18.9-66.46,17.255c11.403-16.024,37.339-41.533,82.954-32.241
	C121.214,125.005,115.767,130.416,108.588,135.486z M183.142,277.735h-47.704c21.438-47.063,26.451-100.16,14.281-152.061
	C175.821,170.982,187.551,224.289,183.142,277.735z M188.412,135.486c-7.181-5.071-12.629-10.483-16.495-14.986
	c45.612-9.293,71.551,16.218,82.953,32.242C229.293,154.373,206.978,148.596,188.412,135.486z"/>
<g>
</g>
<g>
</g>
<g>
</g>
<g>
</g>
<g>
</g>
<g>
</g>
<g>
</g>
<g>
</g>
<g>
</g>
<g>
</g>
<g>
</g>
<g>
</g>
<g>
</g>
<g>
</g>
<g>
</g>
</svg>
